<svg xmlns="http://www.w3.org/2000/svg" viewBox="0 0 1600 1000">
  <defs>
    <linearGradient id="bg" x1="0%" y1="0%" x2="100%" y2="100%">
      <stop offset="0%" stop-color="#0b1730"/>
      <stop offset="100%" stop-color="#123055"/>
    </linearGradient>
  </defs>
  <rect width="1600" height="1000" fill="url(#bg)"/>
  <circle cx="260" cy="200" r="220" fill="#83c5ff" opacity="0.16"/>
  <circle cx="1330" cy="780" r="260" fill="#5eead4" opacity="0.12"/>
  <rect x="140" y="120" width="1320" height="760" rx="40" fill="#08111f" stroke="#28456e" stroke-width="4"/>
  <rect x="200" y="190" width="280" height="160" rx="24" fill="#10233e"/>
  <rect x="520" y="190" width="340" height="160" rx="24" fill="#142e52"/>
  <rect x="900" y="190" width="500" height="160" rx="24" fill="#0f2745"/>
  <rect x="200" y="400" width="540" height="360" rx="28" fill="#10233e"/>
  <rect x="780" y="400" width="620" height="360" rx="28" fill="#0f2745"/>
  <rect x="240" y="450" width="90" height="250" rx="16" fill="#83c5ff" opacity="0.78"/>
  <rect x="360" y="530" width="90" height="170" rx="16" fill="#5eead4" opacity="0.7"/>
  <rect x="480" y="480" width="90" height="220" rx="16" fill="#f59e0b" opacity="0.7"/>
  <path d="M840 610 C910 520 990 640 1060 530 S1210 480 1310 570" fill="none" stroke="#83c5ff" stroke-width="14" stroke-linecap="round"/>
  <path d="M840 660 C930 590 1020 700 1120 610 S1270 620 1340 560" fill="none" stroke="#5eead4" stroke-width="10" stroke-linecap="round"/>
  <text x="210" y="165" fill="#dbeafe" font-family="Inter, sans-serif" font-size="46" font-weight="700">Retail &amp; Warehouse Dashboard</text>
</svg>
